<?xml version="1.0" encoding="UTF-8" standalone="no"?>
<!-- Created with Inkscape (http://www.inkscape.org/) -->

<svg
   width="479.78912"
   height="158.29187"
   viewBox="0 0 126.9442 41.88139"
   version="1.1"
   id="svg1"
   xmlns="http://www.w3.org/2000/svg"
   xmlns:svg="http://www.w3.org/2000/svg">
  <defs
     id="defs1" />
  <g
     id="layer1"
     transform="translate(-3.4593295,-5.517643)">
    <g
       id="g15"
       transform="matrix(0.96263593,0,0,0.96263593,0.12923702,1.008081)"
       style="fill:#0a1705;fill-opacity:1">
      <g
         id="g13"
         transform="translate(-1.5328397,-0.69904163)"
         style="fill:#0a1705;fill-opacity:1">
        <path
           style="color:#000000;fill:#0a1705;fill-opacity:1;stroke-linejoin:round;-inkscape-stroke:none"
           d="m 11.580078,5.5449219 c -3.632582,0 -6.5878905,2.9553089 -6.5878905,6.5878911 v 30.169921 c 0,3.632582 2.9553084,6.587891 6.5878905,6.587891 h 30.167969 c 3.632582,0 6.58789,-2.955309 6.58789,-6.587891 V 12.132813 c 0,-3.6325821 -2.955308,-6.5878911 -6.58789,-6.5878911 z m 0,1.9902343 h 30.167969 c 2.565049,0 4.599609,2.0326075 4.599609,4.5976568 v 30.169921 c 0,2.565049 -2.03456,4.59961 -4.599609,4.59961 H 11.580078 c -2.5650491,0 -4.5996093,-2.034561 -4.5996093,-4.59961 V 12.132813 c 0,-2.5650492 2.0345601,-4.5976568 4.5996093,-4.5976568 z"
           id="rect1" />
        <path
           d="m 25.847001,36.767782 v 6.822322 c 0.110513,-0.0083 0.219204,-0.02108 0.325562,-0.03772 0.106524,-0.01667 0.210803,-0.03752 0.313159,-0.06253 0.102356,-0.02501 0.202569,-0.05399 0.300757,-0.08733 0.09819,-0.03335 0.194335,-0.07097 0.288354,-0.112655 0.09402,-0.04168 0.186102,-0.08744 0.275952,-0.137459 0.08985,-0.05002 0.177351,-0.104424 0.263033,-0.162781 0.08568,-0.05836 0.169634,-0.120892 0.251148,-0.187585 0.08522,-0.06669 0.164695,-0.138662 0.239262,-0.216008 0.07457,-0.07735 0.143824,-0.160049 0.207739,-0.248047 0.06391,-0.088 0.122955,-0.181435 0.176217,-0.280086 0.05326,-0.09865 0.10105,-0.202306 0.14366,-0.311609 0.04261,-0.109303 0.07966,-0.22421 0.111621,-0.344165 0.03196,-0.119955 0.05879,-0.24508 0.0801,-0.375688 0.0213,-0.130608 0.03741,-0.266466 0.04806,-0.407727 0.01065,-0.14126 0.01602,-0.287853 0.01602,-0.439766 0,-0.155618 -0.0054,-0.305546 -0.01602,-0.449585 -0.01065,-0.144039 -0.02675,-0.282501 -0.04806,-0.414962 -0.02131,-0.13246 -0.04814,-0.25894 -0.0801,-0.379822 -0.03196,-0.120881 -0.06901,-0.235895 -0.111621,-0.345198 -0.04261,-0.109303 -0.0904,-0.212851 -0.14366,-0.310576 -0.05326,-0.09772 -0.112303,-0.189806 -0.176217,-0.275952 -0.06391,-0.08615 -0.133172,-0.166245 -0.207739,-0.240812 -0.07457,-0.07457 -0.154043,-0.143717 -0.239262,-0.206706 -0.08151,-0.06669 -0.165465,-0.129228 -0.251148,-0.187585 -0.08568,-0.05836 -0.173182,-0.112244 -0.263033,-0.162264 -0.08985,-0.05002 -0.181933,-0.09578 -0.275952,-0.137459 -0.09402,-0.04168 -0.190167,-0.07931 -0.288354,-0.112655 -0.09819,-0.03335 -0.198401,-0.06284 -0.300757,-0.08785 -0.102356,-0.02501 -0.206635,-0.04585 -0.313159,-0.06253 -0.106358,-0.01665 -0.215049,-0.02887 -0.325562,-0.03721 z"
           style="-inkscape-font-specification:'Noto Sans Semi-Bold';fill:#0a1705;fill-opacity:1;stroke-width:1.75048;stroke-linejoin:round"
           id="path9" />
        <path
           d="m 25.847001,10.857218 v 4.620907 c 0.183193,-0.0078 0.36476,-0.02015 0.550354,-0.02015 0.181554,0 0.357748,0.0042 0.52865,0.01344 0.170902,0.0093 0.336878,0.02333 0.497127,0.04186 0.16025,0.01853 0.314974,0.04197 0.464571,0.06976 0.149597,0.02779 0.294104,0.0601 0.433049,0.09715 0.138944,0.03705 0.2722,0.07874 0.400492,0.125057 0.128292,0.04631 0.25133,0.09738 0.36897,0.152962 0.11764,0.05558 0.229943,0.11551 0.33693,0.180351 0.106988,0.06484 0.208556,0.134152 0.304891,0.208256 0.10004,0.0741 0.194102,0.152687 0.281637,0.235128 0.08753,0.08244 0.168883,0.169155 0.243913,0.259932 0.07503,0.09078 0.143664,0.185623 0.206189,0.284737 0.06253,0.09911 0.118961,0.202092 0.168982,0.309542 0.05002,0.10745 0.09374,0.219076 0.131258,0.334863 0.03751,0.115787 0.06852,0.236061 0.09353,0.360185 0.02501,0.124124 0.04382,0.252012 0.05633,0.384473 0.01251,0.13246 0.0186,0.269513 0.0186,0.410311 0,0.185259 -0.0081,0.364841 -0.02481,0.538985 -0.01667,0.174144 -0.04158,0.342884 -0.07493,0.505912 -0.03335,0.163028 -0.07504,0.32041 -0.125057,0.472323 -0.05002,0.151912 -0.108489,0.297935 -0.175183,0.438733 -0.06669,0.133386 -0.143405,0.267836 -0.230477,0.403076 -0.08707,0.135239 -0.184521,0.271668 -0.291971,0.40876 -0.107451,0.137092 -0.225122,0.274984 -0.352951,0.413928 -0.127828,0.138945 -0.26572,0.278816 -0.413928,0.419613 -0.140797,0.140797 -0.295468,0.287337 -0.464054,0.43925 -0.168586,0.151913 -0.351395,0.309294 -0.54777,0.472322 -0.196375,0.163029 -0.406289,0.331252 -0.630453,0.505396 -0.224164,0.174144 -0.462215,0.354242 -0.714168,0.539502 -0.185259,0.144502 -0.363486,0.287815 -0.534851,0.430465 -0.171365,0.142649 -0.33604,0.284499 -0.49351,0.425297 -0.0039,0.0035 -0.0075,0.0068 -0.01137,0.01034 V 33.1091 h 1.839681 v -1.11156 c 0,-0.170439 0.0047,-0.33522 0.01395,-0.494543 0.0093,-0.159323 0.02333,-0.312747 0.04186,-0.460954 0.01853,-0.148208 0.04146,-0.291306 0.06925,-0.428398 0.02779,-0.137092 0.06062,-0.268315 0.09767,-0.394291 0.04446,-0.125976 0.09824,-0.252295 0.16123,-0.378271 0.06299,-0.125977 0.13501,-0.251779 0.216524,-0.377755 0.08151,-0.125977 0.172295,-0.251778 0.272335,-0.377755 0.10004,-0.125976 0.209579,-0.252295 0.328145,-0.378271 0.125977,-0.125977 0.2646,-0.258448 0.416512,-0.397392 0.151913,-0.138945 0.316695,-0.284236 0.494544,-0.436149 0.355698,-0.303826 0.763221,-0.633389 1.222664,-0.989087 0.281595,-0.214901 0.552474,-0.427311 0.811837,-0.636654 0.259363,-0.209343 0.507525,-0.415815 0.744657,-0.6196 0.237132,-0.203786 0.463094,-0.404837 0.677995,-0.603064 0.214901,-0.198228 0.418663,-0.393341 0.611332,-0.586011 0.19267,-0.19267 0.3735,-0.389031 0.542086,-0.589111 0.168586,-0.20008 0.32472,-0.403842 0.469222,-0.611332 0.144503,-0.207491 0.276973,-0.419169 0.397392,-0.63407 0.120419,-0.214901 0.229227,-0.433463 0.325561,-0.655774 0.05187,-0.114861 0.100339,-0.232532 0.145728,-0.35295 0.04539,-0.120419 0.0877,-0.24351 0.126607,-0.369487 0.0389,-0.125976 0.07455,-0.254488 0.106971,-0.386023 0.03242,-0.131534 0.0614,-0.265984 0.08733,-0.403076 0.05187,-0.274184 0.09085,-0.559346 0.116788,-0.855762 0.02594,-0.296415 0.03876,-0.604294 0.03876,-0.922941 0,-0.289004 -0.01282,-0.570886 -0.03876,-0.84646 -0.02594,-0.275573 -0.06492,-0.544527 -0.116788,-0.806669 C 36.01621,16.743538 35.951588,16.48803 35.873779,16.239319 35.79597,15.990608 35.70519,15.748544 35.601444,15.513265 35.497699,15.277986 35.38076,15.049367 35.251078,14.827519 35.121397,14.605671 34.978815,14.390497 34.823197,14.18208 34.66758,13.973663 34.498839,13.771935 34.317285,13.576949 34.135731,13.381964 33.941349,13.19368 33.733858,13.012126 c -0.101892,-0.09078 -0.206573,-0.178447 -0.313676,-0.26355 -0.107103,-0.0851 -0.216865,-0.167584 -0.329179,-0.247014 -0.112313,-0.07943 -0.227157,-0.155686 -0.344681,-0.229443 -0.117524,-0.07376 -0.237451,-0.144824 -0.360185,-0.212907 -0.245469,-0.136165 -0.501602,-0.261183 -0.767912,-0.374654 -0.26631,-0.113471 -0.542771,-0.215664 -0.829923,-0.306441 -0.287152,-0.09078 -0.584975,-0.170146 -0.892969,-0.238228 -0.307994,-0.06808 -0.626145,-0.124627 -0.954981,-0.170016 -0.328835,-0.04539 -0.668348,-0.07963 -1.018025,-0.102319 -0.349677,-0.0227 -0.709519,-0.03411 -1.080038,-0.03411 -0.244542,0 -0.486552,0.004 -0.725537,0.01137 -0.09099,0.0028 -0.179568,0.0085 -0.269751,0.0124 z"
           style="-inkscape-font-specification:'Noto Sans Semi-Bold';fill:#0a1705;fill-opacity:1;stroke-width:1.75048;stroke-linejoin:round"
           id="path5" />
        <path
           d="m 12.239046,9.5007121 c -0.113989,0 -0.226505,0.00586 -0.337447,0.017053 -0.110942,0.011197 -0.220278,0.027759 -0.327628,0.049609 -0.107351,0.021851 -0.213045,0.048654 -0.31626,0.080615 -0.103215,0.031962 -0.203771,0.069058 -0.302307,0.1105876 -0.09854,0.041529 -0.195041,0.087938 -0.288355,0.1384928 -0.09331,0.050554 -0.183752,0.1052945 -0.271301,0.1643305 -0.08755,0.05904 -0.171975,0.122161 -0.253215,0.189136 -0.08124,0.06698 -0.1591901,0.137503 -0.2335771,0.211873 -0.074387,0.07437 -0.1453992,0.152354 -0.2123901,0.233578 -0.066991,0.08122 -0.1300845,0.166198 -0.1891358,0.253731 -0.059051,0.08753 -0.1137629,0.178001 -0.164331,0.271302 -0.050568,0.0933 -0.096951,0.189313 -0.1384929,0.287837 -0.041541,0.09853 -0.078099,0.199619 -0.1100708,0.302824 -0.031971,0.103205 -0.059274,0.2084 -0.081132,0.315743 -0.021858,0.107343 -0.038409,0.216691 -0.049609,0.327629 -0.011201,0.110938 -0.017053,0.223457 -0.017053,0.337447 v 28.850952 c 0,0.11399 0.00585,0.226505 0.017053,0.337447 0.011201,0.110942 0.027752,0.220279 0.049609,0.327629 0.021858,0.10735 0.049161,0.213044 0.081132,0.316259 0.031971,0.103215 0.068529,0.203771 0.1100708,0.302308 0.041542,0.09854 0.087925,0.19504 0.1384929,0.288354 0.050568,0.09331 0.1052797,0.183753 0.164331,0.271301 0.059051,0.08755 0.1221449,0.171975 0.1891358,0.253215 0.066991,0.08124 0.1380031,0.15919 0.2123901,0.233577 0.074387,0.07439 0.1523381,0.1454 0.2335771,0.21239 0.08124,0.06699 0.165666,0.130085 0.253215,0.189136 0.08755,0.05905 0.177987,0.113763 0.271301,0.164331 0.09331,0.05057 0.189818,0.09695 0.288355,0.138493 0.09854,0.04154 0.199092,0.0781 0.302307,0.110071 0.103215,0.03197 0.208909,0.05927 0.31626,0.08113 0.10735,0.02186 0.216686,0.03841 0.327628,0.04961 0.110942,0.0112 0.223458,0.01705 0.337447,0.01705 h 13.607955 v -1.345654 c 0,0 -5.17e-4,0 -5.17e-4,0 -0.110692,0.0083 -0.223103,0.0124 -0.337963,0.0124 -0.118567,0 -0.235452,-0.0041 -0.34985,-0.0124 -0.114398,-0.0083 -0.226701,-0.02105 -0.33693,-0.03772 -0.11023,-0.01667 -0.218467,-0.03752 -0.324528,-0.06253 -0.106061,-0.02501 -0.209716,-0.05399 -0.311609,-0.08733 -0.101893,-0.03335 -0.201999,-0.07097 -0.299723,-0.112655 -0.09773,-0.04168 -0.193249,-0.08744 -0.286805,-0.137459 -0.09356,-0.05002 -0.185014,-0.104424 -0.274402,-0.162781 -0.08939,-0.05836 -0.17678,-0.120892 -0.261999,-0.187585 -0.08151,-0.06669 -0.157602,-0.138662 -0.228927,-0.216008 -0.07132,-0.07735 -0.137818,-0.160049 -0.198954,-0.248047 -0.06114,-0.088 -0.117002,-0.181435 -0.167948,-0.280086 -0.05095,-0.09865 -0.0967,-0.202306 -0.13746,-0.311609 -0.04076,-0.109303 -0.0764,-0.22421 -0.10697,-0.344165 -0.03057,-0.119955 -0.0561,-0.24508 -0.07648,-0.375688 -0.02038,-0.130608 -0.0358,-0.266466 -0.04599,-0.407727 -0.01019,-0.14126 -0.0155,-0.287853 -0.0155,-0.439766 0,-0.155618 0.0053,-0.305546 0.0155,-0.449585 0.01019,-0.144039 0.02561,-0.282501 0.04599,-0.414962 0.02038,-0.13246 0.04591,-0.25894 0.07648,-0.379822 0.03057,-0.120881 0.06621,-0.235895 0.10697,-0.345198 0.04076,-0.109303 0.08651,-0.212851 0.13746,-0.310576 0.05095,-0.09772 0.106813,-0.189806 0.167948,-0.275952 0.06114,-0.08615 0.12763,-0.166245 0.198954,-0.240812 0.07133,-0.07457 0.147413,-0.143717 0.228927,-0.206706 0.08522,-0.06669 0.172612,-0.129228 0.261999,-0.187585 0.08939,-0.05836 0.180846,-0.112244 0.274402,-0.162264 0.09356,-0.05002 0.18908,-0.09578 0.286805,-0.137459 0.09772,-0.04168 0.19783,-0.07931 0.299723,-0.112655 0.101893,-0.03335 0.205548,-0.06284 0.311609,-0.08785 0.106061,-0.02501 0.214298,-0.04585 0.324528,-0.06253 0.110229,-0.01667 0.222532,-0.02887 0.33693,-0.03721 0.114398,-0.0083 0.231283,-0.0124 0.34985,-0.0124 0.11486,0 0.227271,0.0041 0.337963,0.0124 0,0 5.17e-4,0 5.17e-4,0 V 33.10909 H 22.92935 v -1.467094 c 0,-0.19267 0.0046,-0.381577 0.01344,-0.566373 0.0088,-0.184797 0.02167,-0.36568 0.03927,-0.542603 0.0176,-0.176923 0.03975,-0.349782 0.06615,-0.518831 0.0264,-0.16905 0.0573,-0.333885 0.0925,-0.495061 0.0352,-0.161175 0.07486,-0.318503 0.118856,-0.471805 0.044,-0.153303 0.09241,-0.302606 0.145211,-0.448035 0.0528,-0.145429 0.109967,-0.287225 0.171566,-0.42478 0.0616,-0.137555 0.127522,-0.270811 0.19792,-0.400493 0.0741,-0.129681 0.154881,-0.26069 0.24288,-0.392224 0.088,-0.131534 0.183361,-0.264005 0.285254,-0.397392 0.101892,-0.133386 0.210808,-0.26732 0.326595,-0.402559 0.115787,-0.135239 0.238254,-0.271669 0.367936,-0.408761 0.129681,-0.137092 0.266218,-0.274983 0.409794,-0.413928 0.139998,-0.135482 0.287075,-0.272034 0.440283,-0.409277 v -9.871749 c -0.138645,0.0059 -0.279242,0.0051 -0.416512,0.0155 -0.318646,0.02408 -0.633409,0.06035 -0.944645,0.10852 -0.311236,0.04817 -0.619116,0.108617 -0.922941,0.180868 -0.303826,0.07225 -0.603789,0.156363 -0.900204,0.252698 -0.296415,0.09633 -0.592936,0.199205 -0.889351,0.308508 -0.296415,0.109303 -0.592936,0.224994 -0.889351,0.347266 -0.296415,0.122271 -0.59242,0.2513 -0.888835,0.386539 -0.296415,0.13524 -0.592936,0.276573 -0.889351,0.424781 l -2.000912,-4.179073 c 0.340877,-0.177849 0.688468,-0.348569 1.042314,-0.511597 0.353845,-0.163028 0.71374,-0.318431 1.080554,-0.466638 0.366814,-0.148208 0.740563,-0.289327 1.120345,-0.422714 0.379782,-0.133386 0.765836,-0.259188 1.158586,-0.377754 0.20008,-0.05928 0.40311,-0.115043 0.608748,-0.166915 0.205638,-0.05187 0.414089,-0.09971 0.625285,-0.144177 0.211196,-0.04446 0.425068,-0.08542 0.641821,-0.122474 0.216754,-0.03705 0.436047,-0.07009 0.658358,-0.09974 0.222311,-0.02964 0.447542,-0.0558 0.675411,-0.07803 0.227869,-0.02223 0.45852,-0.04099 0.691947,-0.05581 0.144554,-0.0092 0.292048,-0.01433 0.438733,-0.02067 V 9.5007121 Z"
           style="fill:#0a1705;fill-opacity:1;stroke-width:1.70428;stroke-linejoin:round"
           id="path4" />
      </g>
      <g
         id="g12"
         transform="matrix(1.0615733,0,0,1.0615733,-4.4758078,-2.058476)"
         style="fill:#0a1705;fill-opacity:1">
        <g
           id="text10"
           style="font-weight:800;font-size:25.4px;font-family:Raleway;-inkscape-font-specification:'Raleway Ultra-Bold';letter-spacing:-0.679979px;fill:#0a1705;fill-opacity:1;stroke-width:2;stroke-linejoin:round"
           aria-label="BLACK">
          <path
             d="m 66.491553,19.864762 c 0,-2.4384 -1.2954,-4.0132 -3.3528,-4.6228 1.7018,-0.762 2.5908,-2.4638 2.5908,-4.1656 0,-2.2859996 -1.5748,-4.6227995 -4.1148,-4.6227995 h -10.033 V 24.487562 h 8.7884 c 3.3528,0 6.1214,-1.524 6.1214,-4.6228 z m -10.7442,-9.8552 h 4.2418 c 0.889,0 1.6002,0.6604 1.6002,1.8542 0,1.27 -0.8382,1.8796 -1.7526,1.8796 h -4.0894 z m 6.5024,9.017 c 0,1.143 -0.8128,1.9304 -1.8796,1.9304 h -4.6228 v -3.937 h 4.8006 c 0.9906,0 1.7018,0.889 1.7018,2.0066 z"
             id="path15"
             style="fill:#0a1705;fill-opacity:1" />
          <path
             d="m 67.885374,24.487562 h 12.9032 v -3.6576 h -8.7376 V 6.4535625 h -4.1656 z"
             id="path16"
             style="fill:#0a1705;fill-opacity:1" />
          <path
             d="M 87.921722,6.4535625 81.698723,24.487562 h 4.267199 l 1.3716,-4.0386 h 5.6134 l 1.397,4.0386 h 4.2672 l -6.1976,-18.0339995 z m 4.3434,11.1251995 h -4.2672 l 2.159,-6.9342 z m 5.695424,-2.2606 c 0,4.6228 3.657604,9.3218 8.890004,9.3218 2.9972,0 6.477,-1.524 7.5438,-4.191 l -3.4036,-2.0066 c -0.7366,1.8034 -2.54,2.4892 -4.0386,2.4892 -2.8956,0 -4.7498,-2.5908 -4.7498,-5.461 0,-2.6162 1.4986,-5.4102 4.699,-5.4102 1.4732,0 3.2766,0.5588 4.0894,2.4638 l 3.2004,-2.2352 c -1.2192,-2.3367996 -3.81,-3.9369995 -7.1882,-3.9369995 -5.6896,0 -9.042404,4.5973995 -9.042404,8.9661995 z m 17.836614,9.1694 h 4.1656 v -5.3086 l 1.8796,-1.9304 5.08,7.239 h 4.7752 l -7.2136,-9.9822 6.7564,-8.0517995 h -4.6736 l -6.604,7.7723995 V 6.4535625 h -4.1656 z"
             id="path17"
             style="fill:#0a1705;fill-opacity:1" />
        </g>
        <path
           d="m 66.491553,42.560252 c 0,-2.4384 -1.2954,-4.0132 -3.3528,-4.6228 1.7018,-0.762 2.5908,-2.4638 2.5908,-4.1656 0,-2.286 -1.5748,-4.6228 -4.1148,-4.6228 h -10.033 v 18.034 h 8.7884 c 3.3528,0 6.1214,-1.524 6.1214,-4.6228 z m -10.7442,-9.8552 h 4.2418 c 0.889,0 1.6002,0.6604 1.6002,1.8542 0,1.27 -0.8382,1.8796 -1.7526,1.8796 h -4.0894 z m 6.5024,9.017 c 0,1.143 -0.8128,1.9304 -1.8796,1.9304 h -4.6228 v -3.937 h 4.8006 c 0.9906,0 1.7018,0.889 1.7018,2.0066 z m 14.020272,5.6134 c 5.2324,0 8.9916,-4.3688 8.9916,-9.1186 0,-4.572 -3.556,-9.1694 -8.9154,-9.1694 -5.207,0 -9.017,4.318 -9.017,9.0932 0,4.6482 3.5814,9.1948 8.9408,9.1948 z m -4.699,-9.144 c 0,-2.7178 1.5748,-5.4356 4.7244,-5.4356 3.048,0 4.7244,2.5908 4.7244,5.3848 0,2.6924 -1.5494,5.4864 -4.7244,5.4864 -3.0734,0 -4.7244,-2.667 -4.7244,-5.4356 z m 17.322254,-9.0424 h -4.5466 l 5.969,9.144 -5.7658,8.89 h 4.5466 l 3.7084,-5.969 3.7084,5.969 h 4.521201 l -5.765801,-8.89 5.969001,-9.144 h -4.521201 l -3.9116,6.223 z"
           id="text12"
           style="-inkscape-font-specification:'Raleway Ultra-Bold';fill:#0a1705;fill-opacity:1;stroke-width:2;stroke-linejoin:round"
           aria-label="BOX" />
      </g>
    </g>
  </g>
</svg>
